v -6.766940 0.000000 6.766940
v 6.766940 0.000000 6.766940
v -6.766940 0.000000 -6.766940
v 6.766940 0.000000 -6.766940
v -6.766940 2.000000 6.766940
v 6.766940 2.000000 6.766940
v 6.766940 2.000000 6.766940
v 6.766940 2.000000 -6.766940
v -6.766940 2.000000 6.766940
v -6.766940 2.000000 -6.766940
v 6.766940 2.000000 -6.766940

vt 1.000000 0.000000
vt 0.000000 1.000000
vt 0.000000 0.000000
vt 1.000000 0.000000
vt 1.000000 1.000000
vt 1.000000 1.000000
vt 0.000000 1.000000
vt 0.000000 0.000000
vt 0.000000 0.000000
vt 1.000000 0.000000
vt 1.000000 1.000000

vn 0.0000 1.0000 0.0000
vn 0.0000 0.0000 -1.0000
vn -1.0000 0.0000 0.0000
vn 0.0000 0.0000 1.0000
vn 1.0000 0.0000 0.0000

f 2/1/1 3/2/1 1/3/1
f 1/3/2 6/4/2 2/1/2
f 2/1/3 8/5/3 4/6/3
f 4/6/4 10/7/4 3/2/4
f 3/2/5 9/8/5 1/3/5
f 2/1/1 4/6/1 3/2/1
f 1/3/2 5/9/2 6/4/2
f 2/1/3 7/10/3 8/5/3
f 4/6/4 11/11/4 10/7/4
f 3/2/5 10/7/5 9/8/5